# xmcd
#
# Track frame offsets: 
#        150
#        13192
#        30823
#        53090
#        66772
#        80848
#        99472
#        112353
#        128698
#        140540
#        160591
#
# Disc length: 2320 seconds
#
# Revision: 0
# Processed by: cddbd v1.5.2PL0 Copyright (c) Steve Scherf et al.
# Submitted via: ExactAudioCopy v0.95a4
#
DISCID=8d090e0b
DTITLE=Kendel Carson - Rearview Mirror Tears
DYEAR=2007
DGENRE=Country
TTITLE0=Run to the Middle of the Mornin'
TTITLE1=I Like Trucks
TTITLE2=Take Me Down to the River
TTITLE3=Ribbons and Bows
TTITLE4=I Certainly Know Why
TTITLE5=Gold in the Hills (of Saltery Bay)
TTITLE6=In the Middle of a think about You
TTITLE7=Especially for a Girl
TTITLE8=Child all over Again
TTITLE9=Ain't That A Sun
TTITLE10=Just What Happened to the Moon
EXTD=
EXTT0=
EXTT1=
EXTT2=
EXTT3=
EXTT4=
EXTT5=
EXTT6=
EXTT7=
EXTT8=
EXTT9=
EXTT10=
PLAYORDER=
